<svg xmlns="http://www.w3.org/2000/svg" viewBox="0 0 340 560">
  <rect width="340" height="560" fill="#101c22"/>
  <g fill="#dce4db" font-family="sans-serif" font-size="18" text-anchor="middle">
    <text x="110" y="30">x=12</text><text x="210" y="30">x=13</text>
    <text x="290" y="78">y=10</text><text x="290" y="128">9</text>
    <text x="290" y="178">8</text><text x="290" y="228">7</text>
    <text x="290" y="278">6</text><text x="290" y="328">5</text>
    <text x="290" y="378">4</text><text x="290" y="428">3</text>
    <text x="290" y="478">2</text><text x="290" y="528">1</text>
  </g>
  <path d="M60 50H260V550H60ZM160 50V550M60 100H260M60 150H260M60 200H260M60 250H260M60 300H260M60 350H260M60 400H260M60 450H260M60 500H260" fill="none" stroke="#52646a"/>
  <g fill="#345d69" stroke="#eacb89" stroke-width="3">
    <rect x="63" y="153" width="194" height="94"/>
    <rect x="63" y="353" width="94" height="44"/>
    <rect x="163" y="103" width="94" height="44"/>
  </g>
  <g fill="#fff2c7" font-family="sans-serif" font-size="26" text-anchor="middle">
    <text x="160" y="208">1 · 2×2</text><text x="110" y="384">2</text><text x="210" y="134">3</text>
  </g>
</svg>
